<svg fill="#FFFFFF" xmlns="http://www.w3.org/2000/svg"  viewBox="0 0 24 24" width="48px" height="48px"><path d="M12.01,2.02c-0.16,0-0.32,0-0.48,0.01C6.02,2.29,1.76,6.96,2.01,12.48c0.25,5.36,4.67,9.54,9.98,9.54	c0.16,0,0.31-0.01,0.47-0.02c5.51-0.25,9.78-4.93,9.53-10.45C21.74,6.2,17.32,2.02,12.01,2.02z M15.77,13.78	C15.3,14.94,14.44,16,12.84,16c0,0-0.68-4.95-0.69-5.06c-0.04,0.12-0.99,2.72-0.99,2.72c-0.45,1.2-1.31,2.33-2.91,2.34L7,8	c1.04,0,2.32,0.9,2.41,2.37c0,0,0.16,2.93,0.17,3.17c0.09-0.25,1.17-3.2,1.17-3.2C11.18,9.13,11.99,8,13.52,8	c0,0,0.65,5.28,0.68,5.52c0.06-0.24,0.96-3.18,0.96-3.18C15.59,9.13,16.42,8,18,8L15.77,13.78z"/></svg>